<svg width="21" height="21" viewBox="0 0 21 21" fill="none" xmlns="http://www.w3.org/2000/svg">
<path fill-rule="evenodd" clip-rule="evenodd" d="M6.31982 15.3739C6.31983 15.374 6.31983 15.374 6.31984 15.374C6.83209 15.5508 7.36877 15.6644 7.91821 15.7081C7.9182 15.7081 7.9182 15.7081 7.91819 15.7081C7.36875 15.6643 6.83207 15.5507 6.31982 15.3739ZM8.82692 15.7163C8.8269 15.7163 8.82689 15.7163 8.82688 15.7163C9.25485 15.69 9.68655 15.6207 10.1168 15.5054C10.9657 15.2779 11.7302 14.8925 12.387 14.3892C12.387 14.3892 12.3869 14.3892 12.3869 14.3892C11.7301 14.8925 10.9657 15.2779 10.1168 15.5053C9.68657 15.6206 9.25488 15.6899 8.82692 15.7163ZM13.8903 12.7602C13.8902 12.7602 13.8902 12.7603 13.8902 12.7603C13.9563 12.6582 14.0196 12.5542 14.0798 12.4486C14.0798 12.4486 14.0798 12.4486 14.0798 12.4486C14.0195 12.5542 13.9563 12.6581 13.8903 12.7602ZM11.0698 20.7054C8.88642 20.1204 7.26196 18.4906 6.59019 16.498C7.14797 16.64 7.7257 16.7186 8.313 16.7279C8.93713 17.9311 10.0455 18.8781 11.458 19.2565C14.1254 19.9712 16.8671 18.3883 17.5818 15.721L19.0053 10.4084C19.0767 10.1417 18.9185 9.86751 18.6517 9.79604L15.9345 9.06796C15.9228 8.53533 15.8538 7.99626 15.723 7.45837L19.0399 8.34715C20.1069 8.63303 20.74 9.72971 20.4542 10.7966L19.0307 16.1092C18.1015 19.5768 14.5373 21.6345 11.0698 20.7054ZM10.0303 16.5779C9.78452 16.8237 9.41053 16.8632 9.12351 16.6964C9.43482 16.6673 9.74745 16.6184 10.0599 16.5488C10.05 16.5584 10.0401 16.5681 10.0303 16.5779ZM12.4452 15.9308C12.2845 15.8878 12.1206 15.861 11.956 15.8506C12.5322 15.5449 13.0577 15.1692 13.5244 14.7373C13.9317 14.9322 14.3047 15.1954 14.6265 15.5172C15.123 16.0137 15.4801 16.6321 15.6618 17.3104C15.769 17.7105 15.5316 18.1217 15.1315 18.2289C14.7314 18.3361 14.3201 18.0987 14.2129 17.6986C14.0993 17.2747 13.8762 16.8882 13.5659 16.5779C13.2556 16.2676 12.869 16.0444 12.4452 15.9308ZM14.3998 14.0733C14.3555 14.029 14.3133 13.9827 14.2736 13.9346C14.6296 13.4923 14.9344 13.0112 15.182 12.5013C15.25 12.5825 15.3018 12.6795 15.3311 12.7885C15.3538 12.8733 15.3984 12.9506 15.4605 13.0127C15.5225 13.0747 15.5998 13.1194 15.6846 13.1421C15.7694 13.1648 15.8587 13.1648 15.9434 13.1421C16.0282 13.1194 16.1055 13.0747 16.1676 13.0127C16.4605 12.7198 16.9353 12.7198 17.2282 13.0127C17.5211 13.3056 17.5211 13.7804 17.2282 14.0733C16.98 14.3216 16.6708 14.5001 16.3317 14.591C15.9926 14.6818 15.6355 14.6818 15.2964 14.591C14.9573 14.5001 14.6481 14.3216 14.3998 14.0733Z" fill="#FFAD43"/>
<path fill-rule="evenodd" clip-rule="evenodd" d="M11.2283 2.26655L2.53492 4.59592C2.26819 4.66739 2.1099 4.94156 2.18137 5.2083L3.60488 10.5209C4.31958 13.1882 7.06127 14.7711 9.7286 14.0564C12.3959 13.3417 13.9788 10.6 13.2641 7.9327L11.8406 2.62011C11.7692 2.35337 11.495 2.19508 11.2283 2.26655ZM2.1467 3.14703C1.07976 3.43292 0.446598 4.52959 0.732482 5.59652L2.15599 10.9091C3.08511 14.3766 6.6493 16.4344 10.1168 15.5053C13.5844 14.5762 15.6421 11.012 14.713 7.54447L13.2895 2.23188C13.0036 1.16494 11.907 0.53178 10.84 0.817663L2.1467 3.14703Z" fill="#FFAD43"/>
<path fill-rule="evenodd" clip-rule="evenodd" d="M5.24318 6.97617C5.17975 6.99317 5.1203 7.02249 5.0682 7.06246C5.01611 7.10243 4.9724 7.15227 4.93957 7.20914C4.90674 7.266 4.88543 7.32877 4.87686 7.39387C4.86829 7.45897 4.87263 7.52512 4.88962 7.58854C4.99683 7.98864 4.75939 8.3999 4.35929 8.5071C3.95919 8.61431 3.54794 8.37687 3.44073 7.97677C3.37276 7.72308 3.35541 7.45848 3.3897 7.19808C3.42398 6.93769 3.50921 6.68659 3.64053 6.45914C3.77186 6.23168 3.94669 6.03232 4.15506 5.87243C4.36343 5.71254 4.60125 5.59526 4.85495 5.52728C5.10864 5.45931 5.37324 5.44196 5.63364 5.47625C5.89404 5.51053 6.14513 5.59576 6.37259 5.72709C6.60004 5.85841 6.79941 6.03324 6.95929 6.24161C7.11918 6.44998 7.23646 6.6878 7.30444 6.9415C7.41164 7.3416 7.17421 7.75285 6.77411 7.86006C6.37401 7.96726 5.96275 7.72983 5.85555 7.32973C5.83855 7.2663 5.80923 7.20685 5.76926 7.15475C5.72929 7.10266 5.67945 7.05895 5.62259 7.02612C5.56572 6.99329 5.50295 6.97198 5.43785 6.96341C5.37275 6.95484 5.3066 6.95918 5.24318 6.97617Z" fill="#FFAD43"/>
<path fill-rule="evenodd" clip-rule="evenodd" d="M10.0729 5.68198C9.9448 5.7163 9.83559 5.8001 9.76928 5.91495C9.70298 6.02979 9.68501 6.16627 9.71933 6.29436C9.82654 6.69445 9.5891 7.10571 9.189 7.21291C8.7889 7.32012 8.37765 7.08268 8.27045 6.68258C8.13316 6.17023 8.20503 5.62431 8.47025 5.16495C8.73546 4.70558 9.1723 4.37038 9.68466 4.23309C10.197 4.09581 10.7429 4.16768 11.2023 4.4329C11.6617 4.69811 11.9969 5.13495 12.1341 5.64731C12.2414 6.04741 12.0039 6.45866 11.6038 6.56587C11.2037 6.67307 10.7925 6.43564 10.6853 6.03554C10.6509 5.90745 10.5671 5.79824 10.4523 5.73193C10.3375 5.66563 10.201 5.64766 10.0729 5.68198Z" fill="#FFAD43"/>
<path fill-rule="evenodd" clip-rule="evenodd" d="M4.99373 10.3822C5.28662 10.0893 5.7615 10.0893 6.05439 10.3822C6.42676 10.7545 6.89059 11.0223 7.39925 11.1586C7.90792 11.2949 8.4435 11.2949 8.95217 11.1586C9.46083 11.0223 9.92466 10.7545 10.297 10.3822C10.6694 10.0098 10.9372 9.54597 11.0735 9.03731C11.1807 8.63721 11.5919 8.39977 11.992 8.50698C12.3921 8.61418 12.6296 9.02543 12.5224 9.42553C12.3179 10.1885 11.9162 10.8843 11.3577 11.4428C10.7991 12.0014 10.1034 12.4031 9.34039 12.6075C8.5774 12.812 7.77402 12.812 7.01102 12.6075C6.24802 12.4031 5.55228 12.0014 4.99373 11.4428C4.70084 11.1499 4.70084 10.6751 4.99373 10.3822Z" fill="#FFAD43"/>
</svg>
